<?xml version="1.0" encoding="UTF-8" standalone="no"?>
<!-- Created with Inkscape (http://www.inkscape.org/) -->

<svg
   xmlns:dc="http://purl.org/dc/elements/1.1/"
   xmlns:cc="http://creativecommons.org/ns#"
   xmlns:rdf="http://www.w3.org/1999/02/22-rdf-syntax-ns#"
   xmlns:svg="http://www.w3.org/2000/svg"
   xmlns="http://www.w3.org/2000/svg"
   xmlns:sodipodi="http://sodipodi.sourceforge.net/DTD/sodipodi-0.dtd"
   xmlns:inkscape="http://www.inkscape.org/namespaces/inkscape"
   id="svg4570"
   sodipodi:docname="hci_loop.pdf"
   viewBox="0 0 589.7954 386.74869"
   version="1.1"
   inkscape:version="0.48.4 r9939"
   width="100%"
   height="100%">
  <defs
     id="defs3045" />
  <title
     id="title4591">Cycle</title>
  <sodipodi:namedview
     id="base"
     fit-margin-left="0"
     inkscape:showpageshadow="false"
     inkscape:zoom="1.0819026"
     borderopacity="1.0"
     inkscape:current-layer="layer1"
     inkscape:cx="232.44863"
     inkscape:cy="269.23153"
     inkscape:window-maximized="1"
     showgrid="false"
     fit-margin-right="0"
     inkscape:document-units="px"
     bordercolor="#666666"
     inkscape:window-x="65"
     inkscape:window-y="24"
     fit-margin-bottom="0"
     inkscape:window-width="1615"
     inkscape:pageopacity="0.0"
     inkscape:pageshadow="2"
     pagecolor="#ffffff"
     inkscape:window-height="1026"
     showborder="false"
     fit-margin-top="0" />
  <g
     id="layer1"
     inkscape:label="Calque 1"
     inkscape:groupmode="layer"
     transform="translate(-82.200912,-315.69462)">
    <g
       id="g4551"
       transform="translate(541.96,-13.811)">
      <path
         id="path4526"
         sodipodi:nodetypes="cccccccccccccccccc"
         style="fill:#ffffff;stroke:#000000;stroke-width:2;stroke-linecap:round;stroke-linejoin:round;stroke-dashoffset:3.003"
         inkscape:connector-curvature="0"
         d="m -287.69,405.02 c -4.3509,-4.1702 -10.099,-5.2538 -16.196,0.0565 -16.968,15.596 -27.706,37.246 -35.389,61.121 -20.491,55.143 -3.5256,119.61 36.5,161.56 39.99,43.44 106.13,61.969 162.31,42.469 20.702,-6.819 35.793,-13.731 52.208,-26.016 l 10.749,9.7505 c 6.3006,4.4854 11.513,-0.21494 12.134,-10.568 3.0771,-23.897 7.8155,-45.159 8.2749,-68.789 3.079,-27.631 -5.8937,-24.148 -25.929,-22.964 -21.057,0.67597 -37.064,3.1621 -58.121,7.8409 -11.21,2.0853 -15.241,6.1807 -9.4815,13.92 l 8.3439,10.097 c -8.9572,6.0692 -13.773,10.586 -26.396,12.166 -35.939,5.6302 -74.143,-14.659 -88.781,-48.125 -16.833,-24.9 -15.751,-56.69 4.2417,-79.955 5.9279,-4.8612 6.1848,-10.309 2.3592,-14.537 z" />
      <path
         id="path4528"
         sodipodi:nodetypes="cccccccccccccccccc"
         style="fill:#ffffff;stroke:#000000;stroke-width:2;stroke-linecap:round;stroke-linejoin:round;stroke-dashoffset:3.003"
         inkscape:connector-curvature="0"
         d="m -78.744,443.08 c 5.5869,0.65925 44.449,36.093 42.785,30.212 -3.7502,-22.74 -9.3685,-40.511 -25.132,-60.019 -34.903,-47.354 -98.126,-68.481 -155.15,-57.985 -58.25,9.653 -109.99,54.831 -124.46,112.51 -5.638,21.054 -9.3177,36.684 -6.4497,57.332 l -14.437,4.2469 c -7.2043,2.8132 -6.1279,9.7487 2.193,15.94 18.305,15.667 33.495,31.28 53.012,44.611 21.428,17.715 22.485,7.6814 32.472,-9.7281 10.971,-17.986 18.607,-32.12 26.23,-52.299 4.3975,-10.52 3.1801,-16.136 -6.4503,-15.559 l -14.006,1.6541 c -0.16961,-10.818 -0.32179,-17.528 5.2726,-28.954 14.981,-33.149 54.398,-56.515 90.415,-50.425 31.77,4.3037 54.957,3.3408 63.466,32.812 -0.12414,6.1979 12.203,-20.115 21.421,-23.408 2.9351,-0.92374 4.197,-2.1933 8.8203,-0.9477 z" />
      <path
         id="path4530"
         d="m -60.292,609.03 c 29.118,-37.726 37.029,-62.83 33.632,-114.77 -5.3185,-58.804 -44.824,-115.97 -101.28,-134.66 -20.58,-7.1797 -36.399,-9.4832 -57.707,-9.159 l -3.1675,-14.712 c -2.2726,-7.3926 -9.2688,-6.8321 -16.059,1.008 -16.978,17.096 -33.672,31.09 -48.41,49.567 -19.251,20.059 -9.3234,21.856 7.2999,33.102 17.125,12.272 30.656,25.925 50.215,35.019 10.166,5.1636 15.857,4.3649 15.993,-5.2819 l -0.61372,-11.949 c 18.368,-2.3956 25.942,-1.7557 37.931,4.164 26.906,13.86 45.026,51.827 36.289,87.294 -4.1194,15.447 -8.9989,20.153 -14.555,26.581 82.603,-6.5023 63.506,-10.323 60.43,53.801 z"
         sodipodi:nodetypes="ccccccccccccccc"
         style="fill:#ffffff;stroke:#000000;stroke-width:2;stroke-linecap:round;stroke-linejoin:round;stroke-dashoffset:3.003"
         inkscape:connector-curvature="0" />
    </g>
    <flowRoot
       xml:space="preserve"
       id="flowRoot3047"
       style="font-size:28px;font-style:normal;font-variant:normal;font-weight:normal;font-stretch:normal;line-height:125%;letter-spacing:0px;word-spacing:0px;fill:#000000;fill-opacity:1;stroke:none;font-family:Serif;-inkscape-font-specification:Serif"
       transform="translate(184.74974,411.82156)"><flowRegion
         id="flowRegion3049"><rect
           id="rect3051"
           width="149.58453"
           height="42.088425"
           x="-104.08353"
           y="19.006264" /></flowRegion><flowPara
         id="flowPara3053">Design</flowPara></flowRoot>    <flowRoot
       xml:space="preserve"
       id="flowRoot3055"
       style="font-size:28px;font-style:normal;font-variant:normal;font-weight:normal;font-stretch:normal;line-height:125%;letter-spacing:0px;word-spacing:0px;fill:#000000;fill-opacity:1;stroke:none;font-family:Serif;-inkscape-font-specification:Serif"
       transform="translate(338.65605,369.30386)"><flowRegion
         id="flowRegion3057"><rect
           id="rect3059"
           width="227.505"
           height="60.857586"
           x="-108.06487"
           y="299.40619" /></flowRegion><flowPara
         id="flowPara3061">Implementation</flowPara></flowRoot>    <flowRoot
       xml:space="preserve"
       id="flowRoot3063"
       style="font-size:28px;font-style:normal;font-variant:normal;font-weight:normal;font-stretch:normal;line-height:125%;letter-spacing:0px;word-spacing:0px;fill:#000000;fill-opacity:1;stroke:none;font-family:Serif;-inkscape-font-specification:Serif"
       transform="translate(208.78148,411.66238)"><flowRegion
         id="flowRegion3065"><rect
           id="rect3067"
           width="279.26239"
           height="65.976448"
           x="312.25061"
           y="22.418839" /></flowRegion><flowPara
         id="flowPara3069">Evaluation</flowPara></flowRoot>    <path
       style="fill:#d7eef4;fill-opacity:1;stroke:#000000;stroke-width:0.66826719;stroke-linecap:butt;stroke-linejoin:miter;stroke-miterlimit:4;stroke-opacity:0.98630138;stroke-dasharray:none;stroke-dashoffset:0"
       d="M 71.344886,266.70854 C 61.06599,260.44138 41.442182,244.58328 16.580904,222.45349 -2.2258507,205.71303 -2.554554,203.52132 12.986926,198.48976 l 7.721154,-2.49972 -0.287763,-11.55372 c -0.552657,-22.18929 7.79265,-55.9255 18.977366,-76.71671 15.727078,-29.234977 40.112895,-52.683886 70.225657,-67.527575 9.11181,-4.491546 24.14306,-10.113427 27.04032,-10.113427 0.785,0 -2.33292,3.842761 -6.93706,8.549753 -10.78766,11.028649 -20.72897,22.357197 -23.72504,27.035707 -5.50556,8.597199 -4.03066,12.138977 8.65741,20.789558 4.77307,3.254231 14.18749,10.175086 20.92092,15.379674 l 12.2426,9.4629 -7.5054,4.45071 c -15.77599,9.3552 -28.94713,23.5113 -35.96054,38.64973 -4.388737,9.47309 -5.513155,14.29036 -5.513155,23.61961 l 0,7.55009 3.003965,-0.52787 c 9.70382,-1.70521 14.54001,-1.75065 16.96854,-0.15941 2.22175,1.45574 2.39685,1.99374 1.91835,5.89432 -0.7763,6.32828 -9.66323,27.35175 -17.44302,41.26426 -10.774745,19.26839 -18.635247,32.53714 -20.396618,34.43009 -2.458804,2.64249 -7.440333,2.74635 -11.549726,0.24081 l 0,0 z"
       id="path3071"
       inkscape:connector-curvature="0"
       transform="translate(174.58247,315.6946)" />
    <path
       style="fill:#ffccaa;fill-opacity:1;stroke:#000000;stroke-width:0.66826719;stroke-linecap:butt;stroke-linejoin:miter;stroke-miterlimit:4;stroke-opacity:0.98630138;stroke-dasharray:none;stroke-dashoffset:0"
       d="M 168.62787,347.06038 C 139.46976,345.03927 109.3145,333.71114 85.441079,315.8104 66.677792,301.74133 48.64824,279.98998 37.906773,258.46368 c -4.597966,-9.21449 -9.309999,-20.45488 -9.309999,-22.20867 0,-0.55722 3.431455,1.96208 7.625455,5.59845 8.383847,7.26913 26.668147,21.29668 32.764796,25.13686 2.134271,1.34434 5.521537,2.70667 7.527258,3.0274 6.293921,1.00644 9.145132,-2.79329 28.665277,-38.20135 2.86965,-5.20534 5.42552,-9.4563 5.6797,-9.44657 0.25419,0.01 1.91792,2.56609 3.6972,5.68079 6.87493,12.03491 21.67009,24.94777 36.3619,31.7358 10.26726,4.74377 19.23367,6.94161 30.83068,7.55719 12.71029,0.67468 22.7402,-0.77303 30.32082,-4.3765 5.62166,-2.67228 13.40658,-7.93538 13.39717,-9.05733 -0.003,-0.33729 -2.29048,-3.47619 -5.08364,-6.97533 -5.71246,-7.15627 -6.51814,-10.67582 -2.97527,-12.9972 2.9383,-1.92525 19.62729,-5.73622 32.18474,-7.34947 15.70923,-2.01816 41.46261,-3.64845 49.05379,-3.1053 5.78758,0.4141 6.96801,0.80946 8.80982,2.9507 2.82858,3.28842 2.79903,9.67307 -0.18421,39.80351 -3.12876,31.60004 -6.41972,52.9414 -8.62068,55.90355 -3.11746,4.19565 -6.03255,3.58945 -13.14763,-2.73406 l -6.36912,-5.66053 -6.72785,4.52779 c -17.22865,11.59474 -41.37503,21.72398 -62.25264,26.11456 -7.24438,1.5235 -27.71832,3.88148 -30.4349,3.50519 -0.50836,-0.0704 -5.49957,-0.44517 -11.09157,-0.83278 l 0,0 z"
       id="path3073"
       inkscape:connector-curvature="0"
       transform="translate(174.58247,315.6946)" />
    <path
       style="fill:#d7f4d7;fill-opacity:1;stroke:#000000;stroke-width:0.66826719;stroke-linecap:butt;stroke-linejoin:miter;stroke-miterlimit:4;stroke-opacity:0.98630138;stroke-dasharray:none;stroke-dashoffset:0"
       d="m 309.03999,265.56333 c 0.35849,-5.35184 1.03496,-12.38094 1.50325,-15.62022 1.14637,-7.92967 1.11101,-20.84649 -0.0631,-23.0403 -2.22122,-4.1504 -6.00487,-5.04717 -20.30715,-4.81305 -7.37127,0.12066 -19.53734,0.76052 -27.0357,1.42192 -7.49837,0.66139 -13.63339,1.08663 -13.63339,0.94497 0,-0.14167 1.82224,-2.91923 4.04942,-6.17236 7.30147,-10.66489 11.44117,-27.56494 10.39816,-42.4498 -0.808,-11.53114 -3.64222,-21.84246 -8.94119,-32.52942 -8.11092,-16.35807 -19.57888,-27.79978 -33.7956,-33.71821 -8.0684,-3.35889 -16.29447,-4.34573 -27.48424,-3.29717 l -7.07875,0.66335 0,8.03415 c 0,10.25301 -1.29971,12.58367 -6.61946,11.87014 -7.9048,-1.06026 -22.94561,-10.36072 -47.45195,-29.341873 -6.60873,-5.118722 -14.09554,-10.574262 -16.63736,-12.123418 -5.99957,-3.656543 -11.55372,-9.023547 -11.55372,-11.164415 0,-3.772378 3.10883,-8.484375 13.72962,-20.809727 12.37581,-14.362053 47.76723,-49.0684629 51.77508,-50.7729611 1.97896,-0.8416347 3.07882,-0.8377536 4.80921,0.01697 2.15038,1.0621816 3.20327,4.0477025 5.95124,16.8749771 0.38809,1.811611 1.2046,1.972486 12.68012,2.498355 29.05248,1.331338 58.58517,11.09559 80.66335,26.669338 10.79108,7.611931 27.91499,24.783596 35.80773,35.907594 12.56823,17.71363 23.11462,42.05154 27.59306,63.67659 3.9134,18.89661 3.90792,52.41442 -0.0115,70.01006 -2.25485,10.12297 -5.65462,19.81119 -10.01084,28.52759 -3.53778,7.07876 -16.2212,26.75747 -17.92423,27.81001 -0.79194,0.48944 -0.89728,-1.82988 -0.41208,-9.07309 l 1e-5,0 z"
       id="path3075"
       inkscape:connector-curvature="0"
       transform="translate(174.58247,315.6946)" />
  </g>
  <metadata
     id="metadata3043">
    <rdf:RDF>
      <cc:Work>
        <dc:format>image/svg+xml</dc:format>
        <dc:type
           rdf:resource="http://purl.org/dc/dcmitype/StillImage" />
        <cc:license
           rdf:resource="http://creativecommons.org/licenses/publicdomain/" />
        <dc:publisher>
          <cc:Agent
             rdf:about="http://openclipart.org/">
            <dc:title>Openclipart</dc:title>
          </cc:Agent>
        </dc:publisher>
        <dc:title>Cycle</dc:title>
        <dc:date>2011-02-14T20:05:10</dc:date>
        <dc:description>Recycling symbol in black and white.</dc:description>
        <dc:source>https://openclipart.org/detail/118339/cycle-by-lmproulx</dc:source>
        <dc:creator>
          <cc:Agent>
            <dc:title>lmproulx</dc:title>
          </cc:Agent>
        </dc:creator>
        <dc:subject>
          <rdf:Bag>
            <rdf:li>arrow</rdf:li>
            <rdf:li>circle</rdf:li>
            <rdf:li>cycle</rdf:li>
            <rdf:li>diagram</rdf:li>
            <rdf:li>graphic organizer</rdf:li>
            <rdf:li>line art</rdf:li>
            <rdf:li>recycle</rdf:li>
          </rdf:Bag>
        </dc:subject>
      </cc:Work>
      <cc:License
         rdf:about="http://creativecommons.org/licenses/publicdomain/">
        <cc:permits
           rdf:resource="http://creativecommons.org/ns#Reproduction" />
        <cc:permits
           rdf:resource="http://creativecommons.org/ns#Distribution" />
        <cc:permits
           rdf:resource="http://creativecommons.org/ns#DerivativeWorks" />
      </cc:License>
    </rdf:RDF>
  </metadata>
</svg>
