<?xml version="1.0" encoding="UTF-8" standalone="no"?>
<!-- Created with Inkscape (http://www.inkscape.org/) -->

<svg
   xmlns:dc="http://purl.org/dc/elements/1.1/"
   xmlns:cc="http://creativecommons.org/ns#"
   xmlns:rdf="http://www.w3.org/1999/02/22-rdf-syntax-ns#"
   xmlns:svg="http://www.w3.org/2000/svg"
   xmlns="http://www.w3.org/2000/svg"
   xmlns:xlink="http://www.w3.org/1999/xlink"
   xmlns:sodipodi="http://sodipodi.sourceforge.net/DTD/sodipodi-0.dtd"
   xmlns:inkscape="http://www.inkscape.org/namespaces/inkscape"
   id="svg5932"
   sodipodi:docname="Martouf_boy_scout.svg"
   viewBox="0 0 322.34 558.46"
   sodipodi:version="0.32"
   version="1.0"
   inkscape:output_extension="org.inkscape.output.svg.inkscape"
   inkscape:version="0.48.4 r9939"
   width="100%"
   height="100%">
  <sodipodi:namedview
     id="base"
     bordercolor="#666666"
     inkscape:pageshadow="2"
     inkscape:window-y="24"
     pagecolor="#ffffff"
     inkscape:zoom="1"
     inkscape:window-x="65"
     borderopacity="1.0"
     inkscape:current-layer="svg5932"
     inkscape:cx="29.55341"
     inkscape:cy="293.11317"
     inkscape:window-height="1026"
     inkscape:pageopacity="0.0"
     inkscape:window-width="1615"
     showgrid="false"
     inkscape:window-maximized="1" />
  <defs
     id="defs5934">
    <linearGradient
       inkscape:collect="always"
       id="linearGradient9067">
      <stop
         style="stop-color:#00a100;stop-opacity:1;"
         offset="0"
         id="stop9069" />
      <stop
         style="stop-color:#00a100;stop-opacity:0;"
         offset="1"
         id="stop9071" />
    </linearGradient>
    <linearGradient
       id="linearGradient9346"
       y2="767.1"
       xlink:href="#linearGradient9318"
       gradientUnits="userSpaceOnUse"
       x2="438.75"
       gradientTransform="translate(2,-72)"
       y1="788.74"
       x1="372.07" />
    <linearGradient
       id="linearGradient9342"
       y2="764.6"
       xlink:href="#linearGradient9318"
       gradientUnits="userSpaceOnUse"
       x2="455.75"
       y1="803.1"
       x1="359.57" />
    <radialGradient
       id="radialGradient9336"
       xlink:href="#linearGradient9318"
       gradientUnits="userSpaceOnUse"
       cy="736.79"
       cx="481.07"
       gradientTransform="matrix(1 0 0 1.2014 2 -149.82)"
       r="37.35" />
    <linearGradient
       id="linearGradient9330"
       y2="527.62"
       xlink:href="#linearGradient9318"
       gradientUnits="userSpaceOnUse"
       x2="230.62"
       gradientTransform="translate(94.106 -274.24)"
       y1="618.11"
       x1="150.88" />
    <linearGradient
       id="linearGradient9326"
       y2="520.66"
       xlink:href="#linearGradient9318"
       gradientUnits="userSpaceOnUse"
       x2="149.91"
       gradientTransform="translate(8.364 -188.31)"
       y1="570.85"
       x1="80.639" />
    <linearGradient
       id="linearGradient9318">
      <stop
         id="stop9320"
         style="stop-color:#ffffff;stop-opacity:.77513"
         offset="0" />
      <stop
         id="stop9322"
         style="stop-color:#ffffff;stop-opacity:0"
         offset="1" />
    </linearGradient>
    <linearGradient
       id="linearGradient9316"
       y2="508.64"
       xlink:href="#linearGradient9318"
       gradientUnits="userSpaceOnUse"
       x2="221.34"
       gradientTransform="translate(201,-101)"
       y1="551.64"
       x1="121.62" />
    <linearGradient
       id="linearGradient9312"
       y2="511.47"
       xlink:href="#linearGradient9318"
       gradientUnits="userSpaceOnUse"
       x2="222.03"
       y1="551.47"
       x1="128.72" />
    <linearGradient
       id="linearGradient9551"
       y2="58.102"
       gradientUnits="userSpaceOnUse"
       x2="51.493"
       gradientTransform="matrix(5.0892 -.17885 .14806 4.2129 21.007 166.35)"
       y1="45.501"
       x1="52.12">
      <stop
         id="stop4377"
         style="stop-color:#000000;stop-opacity:.52646"
         offset="0" />
      <stop
         id="stop4378"
         style="stop-color:#000000;stop-opacity:0"
         offset="1" />
    </linearGradient>
    <radialGradient
       id="radialGradient9553"
       fx="42.672"
       fy="29.104"
       xlink:href="#linearGradient9318"
       gradientUnits="userSpaceOnUse"
       cy="29.482"
       cx="42.425"
       gradientTransform="matrix(5.7187 0 0 3.7538 29.432 156.09)"
       r="26.432" />
    <linearGradient
       inkscape:collect="always"
       xlink:href="#linearGradient9067"
       id="linearGradient9073"
       x1="65"
       y1="371.45999"
       x2="261"
       y2="470.45999"
       gradientUnits="userSpaceOnUse"
       gradientTransform="translate(4.2717415e-6,-3.410612e-7)" />
  </defs>
  <path
     id="path2864"
     style="fill:url(#linearGradient9073);fill-opacity:1;fill-rule:evenodd"
     inkscape:r_cy="true"
     d="m 64.108004,305.31 c -33.771,47.78 -48.266,111.82 -42.196,169.2 29.536,60.31 108.489996,68.65 168.349996,64.22 49.68,-2.86 113.24,-32.78 107.47,-91.44 0.85,-46.1 -6.4,-98.63 -40.97,-132.05 -9.92,32 12.58,0.51 -26.71,11.69 -46.12,-3.75 -69.66,13.4 -115,8.09 C 96.082004,327.79 77.816004,316 64.110004,305.31 z"
     sodipodi:nodetypes="cccccccc"
     inkscape:r_cx="true"
     inkscape:connector-curvature="0" />
  <path
     id="path9383"
     d="m143.05 332.94c22.01 24.02 36.01 67.05 67.02 67.05 30-8.34 34-79.72 38.01-95.07-34.01 23.35-69.02 36.7-105.03 28.02z"
     style="stroke-linejoin:round;fill-rule:evenodd;stroke:#000000;stroke-linecap:round;stroke-width:17.375;fill:#ffffff"
     inkscape:r_cy="true"
     inkscape:r_cx="true" />
  <path
     id="path4369"
     style="stroke-linejoin:round;fill-rule:evenodd;stroke:#000000;stroke-linecap:round;stroke-width:17.37500000000000000;fill:none"
     inkscape:r_cy="true"
     d="m8.6955 457.14c-1.8099 116.74 297.63 130.09 296.9 0 7.16-103.45-44.29-167.25-57.08-157.25-6.49 5.08-97.95 30.86-108.39 29.26-15.75-2.43-45.902-10.21-73.598-34.07-7.266-6.26-55.383 58.1-57.836 162.06z"
     sodipodi:nodetypes="ccsssc"
     inkscape:r_cx="true" />
  <g
     id="g9545"
     transform="translate(-157.53 -169.35)"
     inkscape:r_cy="true"
     inkscape:r_cx="true">
    <path
       id="path3713"
       style="stroke-linejoin:round;fill-rule:evenodd;stroke:#000000;stroke-linecap:round;stroke-width:8.5042;fill:#f0cfa7"
       inkscape:r_cy="true"
       d="m211.22 70.291c0 31.939-27.29 57.829-60.94 57.829-33.66 0-60.945-25.89-60.945-57.829 0-31.936 27.285-57.826 60.945-57.826 33.65 0 60.94 25.89 60.94 57.826z"
       transform="matrix(2.0426 0 0 2.0435 12.061 239.87)"
       inkscape:r_cx="true" />
    <path
       id="path14564"
       d="m298.34 178.78c-180.73 35.51-125.07 284.07-66.51 148.14 12 41.27 164.87 62.93 165.37 45.89 5.34-180.42 2.44 6.93 55.38 8.16 57.82-88.58-26.14-213.78-154.24-202.19z"
       style="stroke-linejoin:round;fill-rule:evenodd;stroke:#000000;stroke-linecap:round;stroke-width:17.375;fill:#000000"
       inkscape:r_cy="true"
       inkscape:r_cx="true" />
    <path
       id="path2856"
       d="m395.82 295.18c-1.59 3.97-1.63 24.82-1.34 77.27 0.1 17.04-153.56 0.75-167-40.06-11.81 30.31-23.93 41.18-34.07 40.6-0.67 5.68-1.34 11.41-1.13 17.28 2.29 65.19 59.92 116.12 128.59 113.7 68.67-2.41 122.44-57.25 120.15-122.44-0.06-1.78-0.62-3.43-0.76-5.19-25.44-11.83-37.09-67.88-42.21-79.65-0.69-0.57-1.52-0.96-2.23-1.51z"
       style="fill-rule:evenodd;fill:url(#linearGradient9551)"
       inkscape:r_cy="true"
       inkscape:r_cx="true" />
    <path
       id="path2861"
       d="m298.3 176.94c-73.04 10.24-133.98 89.32-109.85 161.97 20.2 25.6 25.75-38.97 45.46-29.96 34.81 39.81 95.66 47.4 146.47 48.65 14.7-13.57 3.57-51.35 9.72-73.95 25.22-26.82 25.71 34.05 36.68 49.42 8.96 33.28 29.96 25.63 31.13-5.48 16.63-88.99-76.05-161.15-159.61-150.65z"
       style="fill-rule:evenodd;fill:url(#radialGradient9553)"
       inkscape:r_cy="true"
       inkscape:r_cx="true" />
  </g>
  <metadata
     id="metadata8555">
    <rdf:RDF>
      <cc:Work>
        <dc:format>image/svg+xml</dc:format>
        <dc:type
           rdf:resource="http://purl.org/dc/dcmitype/StillImage" />
        <cc:license
           rdf:resource="http://creativecommons.org/licenses/publicdomain/" />
        <dc:publisher>
          <cc:Agent
             rdf:about="http://openclipart.org/">
            <dc:title>Openclipart</dc:title>
          </cc:Agent>
        </dc:publisher>
        <dc:title></dc:title>
        <dc:date>2006-12-26T00:00:00</dc:date>
        <dc:description />
        <dc:source>https://openclipart.org/detail/3592/-by--3592</dc:source>
        <dc:creator>
          <cc:Agent>
            <dc:title>Martouf</dc:title>
          </cc:Agent>
        </dc:creator>
        <dc:subject>
          <rdf:Bag>
            <rdf:li>boy</rdf:li>
            <rdf:li>people</rdf:li>
            <rdf:li>scout</rdf:li>
            <rdf:li>user</rdf:li>
          </rdf:Bag>
        </dc:subject>
      </cc:Work>
      <cc:License
         rdf:about="http://creativecommons.org/licenses/publicdomain/">
        <cc:permits
           rdf:resource="http://creativecommons.org/ns#Reproduction" />
        <cc:permits
           rdf:resource="http://creativecommons.org/ns#Distribution" />
        <cc:permits
           rdf:resource="http://creativecommons.org/ns#DerivativeWorks" />
      </cc:License>
    </rdf:RDF>
  </metadata>
</svg>
